<svg width="109" height="121" viewBox="0 0 109 121" fill="none" xmlns="http://www.w3.org/2000/svg">
<path d="M23.3029 83.1217H86.7767V114.687H23.3029C14.5243 114.687 7.40778 107.621 7.40778 98.9043C7.40778 90.1878 14.5243 83.1217 23.3029 83.1217Z" fill="#FEE088"/>
<path d="M23.4579 15.7826C14.5937 15.7826 7.40778 22.8711 7.40778 31.6153V98.9043C7.40778 90.1602 14.5937 83.0716 23.4579 83.0716H87.6586C96.5229 83.0716 103.709 75.9831 103.709 67.2389V31.6153C103.709 22.8711 96.5229 15.7826 87.6586 15.7826H23.4579Z" fill="#FEEFC3"/>
<path fill-rule="evenodd" clip-rule="evenodd" d="M22.2037 20.3859C16.6297 20.3859 12.1111 24.8513 12.1111 30.3596V78.6313C15.1392 77.1016 18.5695 76.2388 22.2037 76.2388H86.7963C92.3703 76.2388 96.8889 71.7734 96.8889 66.265V30.3596C96.8889 24.8513 92.3703 20.3859 86.7963 20.3859H22.2037ZM0 98.181V30.3596C0 18.2413 9.94094 8.41739 22.2037 8.41739H86.7963C99.0591 8.41739 109 18.2413 109 30.3596V66.265C109 78.3834 99.0591 88.2072 86.7963 88.2072H22.2037C16.6297 88.2072 12.1111 92.6726 12.1111 98.181C12.1111 101.486 9.39995 104.165 6.05556 104.165C2.71116 104.165 0 101.486 0 98.181Z" fill="#FDCB38"/>
<path fill-rule="evenodd" clip-rule="evenodd" d="M6.05556 93.6435C9.39995 93.6435 12.1111 96.268 12.1111 99.5056C12.1111 104.902 16.6297 109.276 22.2037 109.276H102.944C106.289 109.276 109 111.9 109 115.138C109 118.375 106.289 121 102.944 121H22.2037C9.94094 121 0 111.377 0 99.5056C0 96.268 2.71116 93.6435 6.05556 93.6435Z" fill="#FDCB38"/>
<path fill-rule="evenodd" clip-rule="evenodd" d="M87.3058 76.8087C90.5203 76.8087 93.1262 79.5067 93.1262 82.8348V114.974C93.1262 118.302 90.5203 121 87.3058 121C84.0913 121 81.4854 118.302 81.4854 114.974V82.8348C81.4854 79.5067 84.0913 76.8087 87.3058 76.8087Z" fill="#FDCB38"/>
<path fill-rule="evenodd" clip-rule="evenodd" d="M55.2137 42.087C51.707 42.087 48.8642 39.3951 48.8642 36.0746L48.8642 6.01242C48.8642 2.69186 51.707 1.82168e-05 55.2137 1.85216e-05C58.7205 1.88264e-05 61.5632 2.69186 61.5632 6.01242L61.5632 36.0746C61.5632 39.3951 58.7205 42.087 55.2137 42.087Z" fill="#FDCB38"/>
<path d="M54.6991 33.0117C51.2744 33.0225 46.455 33.5147 42.3944 34.0195C38.2559 34.5341 35.6173 38.6609 37.3079 42.4517C40.4027 49.3912 44.9813 55.7817 51.6245 60.2436C53.5381 61.5288 56.0422 61.521 57.9476 60.2238C64.5624 55.7205 69.1 49.301 72.1503 42.3421C73.8166 38.5408 71.1518 34.4309 67.0103 33.9423C62.9465 33.4628 58.1239 33.0009 54.6991 33.0117Z" fill="white"/>
<path fill-rule="evenodd" clip-rule="evenodd" d="M54.7698 55.1192C49.4403 51.4645 45.5775 46.1791 42.8503 40.0882C42.8636 40.0759 42.8802 40.0627 42.9005 40.0496C42.9475 40.0192 43.0228 39.984 43.1427 39.9691C47.1921 39.4656 51.6928 39.0171 54.7182 39.0076C57.7435 38.998 62.2471 39.4183 66.2997 39.8964C66.4197 39.9106 66.4951 39.9453 66.5424 39.9753C66.5628 39.9883 66.5794 40.0015 66.5928 40.0137C63.9046 46.1217 60.0758 51.4314 54.7698 55.1192ZM48.2489 65.2121C52.2134 67.8749 57.4068 67.8587 61.3545 65.1711C69.1395 59.8712 74.3058 52.4318 77.6784 44.7378C81.1427 36.8344 75.4113 28.8959 67.7208 27.9886C63.6459 27.5078 58.5041 27.0042 54.6799 27.0163C50.856 27.0283 45.7178 27.5642 41.6461 28.0704C33.9614 29.0259 28.2801 37.0007 31.7951 44.8823C35.2169 52.5549 40.4307 59.9612 48.2489 65.2121Z" fill="#FDCB38"/>
</svg>
