<svg width="160" height="160" viewBox="0 0 160 160" fill="none" xmlns="http://www.w3.org/2000/svg">
<path fill-rule="evenodd" clip-rule="evenodd" d="M79.25 37.5579C77.9082 37.4319 76.5928 36.9669 75.4455 36.163C61.2875 26.2421 41.418 21.7463 26.6289 20.0751C19.3095 19.2481 13.3333 25.3602 13.3333 32.9012V108C13.3333 115.541 19.3095 121.655 26.6289 122.482C41.418 124.153 61.2875 128.649 75.4455 138.57C76.5928 139.374 77.9082 139.839 79.25 139.965V37.5579ZM80.75 139.965C82.0918 139.839 83.4072 139.374 84.5545 138.57C98.7125 128.649 118.582 124.153 133.371 122.482C140.691 121.655 146.667 115.541 146.667 108V32.9012C146.667 25.3602 140.691 19.2481 133.371 20.0751C118.582 21.7463 98.7125 26.2421 84.5545 36.163C83.4072 36.9669 82.0918 37.4319 80.75 37.5579V139.965ZM32.5922 54.9161C32.6556 54.5068 33.0388 54.2264 33.4481 54.2898C41.9236 55.6024 51.3921 57.7864 60.2705 61.2196C60.6568 61.369 60.8489 61.8033 60.6995 62.1897C60.5501 62.576 60.1158 62.7681 59.7295 62.6187C50.9783 59.2346 41.6201 57.0732 33.2186 55.7721C32.8092 55.7087 32.5288 55.3255 32.5922 54.9161ZM33.4481 80.9564C33.0388 80.893 32.6556 81.1735 32.5922 81.5828C32.5288 81.9921 32.8092 82.3754 33.2186 82.4388C37.4616 83.0959 41.9505 83.9727 46.4832 85.1163C46.8848 85.2176 47.2926 84.9741 47.3939 84.5725C47.4952 84.1709 47.2518 83.7632 46.8502 83.6618C42.2668 82.5055 37.7316 81.6198 33.4481 80.9564Z" fill="#FDCB38"/>
</svg>
