<svg width="103" height="120" viewBox="0 0 103 120" fill="none" xmlns="http://www.w3.org/2000/svg">
<path d="M21.2204 84.2975H82V114.05H21.2204C12.8144 114.05 6 107.389 6 99.1735C6 90.9577 12.8144 84.2975 21.2204 84.2975Z" fill="#FEE088"/>
<path d="M21.1667 20.8264C12.7903 20.8264 6 27.5078 6 35.7497V99.1735C6 90.9317 12.7903 84.2503 21.1667 84.2503H81.8333C90.2097 84.2503 97 77.5689 97 69.327V35.7497C97 27.5078 90.2097 20.8264 81.8333 20.8264H21.1667Z" fill="#FDCB38" fill-opacity="0.3"/>
<path fill-rule="evenodd" clip-rule="evenodd" d="M20.9815 26.157C15.7143 26.157 11.4444 30.3659 11.4444 35.5578V81.0568C14.3058 79.6149 17.5473 78.8016 20.9815 78.8016H82.0185C87.2857 78.8016 91.5556 74.5928 91.5556 69.4008V35.5578C91.5556 30.3659 87.2857 26.157 82.0185 26.157H20.9815ZM0 99.4835V35.5578C0 24.1356 9.39373 14.876 20.9815 14.876H82.0185C93.6063 14.876 103 24.1356 103 35.5578V69.4008C103 80.8231 93.6063 90.0826 82.0185 90.0826H20.9815C15.7143 90.0826 11.4444 94.2915 11.4444 99.4835C11.4444 102.599 8.88252 105.124 5.72222 105.124C2.56193 105.124 0 102.599 0 99.4835Z" fill="#FDCB38"/>
<path fill-rule="evenodd" clip-rule="evenodd" d="M5.72222 94.2149C8.88252 94.2149 11.4444 96.6887 11.4444 99.7403C11.4444 104.826 15.7143 108.949 20.9815 108.949H97.2778C100.438 108.949 103 111.423 103 114.475C103 117.526 100.438 120 97.2778 120H20.9815C9.39373 120 0 110.929 0 99.7403C0 96.6887 2.56193 94.2149 5.72222 94.2149Z" fill="#FDCB38"/>
<path fill-rule="evenodd" clip-rule="evenodd" d="M81.5 79.3389C84.5376 79.3389 87 81.8213 87 84.8836V114.455C87 117.518 84.5376 120 81.5 120C78.4624 120 76 117.518 76 114.455V84.8836C76 81.8213 78.4624 79.3389 81.5 79.3389Z" fill="#FDCB38"/>
<path fill-rule="evenodd" clip-rule="evenodd" d="M51.5 65.4545C48.4624 65.4545 46 62.9173 46 59.7875L46 31.4522C46 28.3223 48.4624 25.7851 51.5 25.7851C54.5376 25.7851 57 28.3223 57 31.4522L57 59.7875C57 62.9173 54.5376 65.4545 51.5 65.4545Z" fill="#FDCB38"/>
<path d="M51.5 31.7355C54.6512 31.7355 59.0871 31.2993 62.8249 30.8492C66.6343 30.3905 69.0743 26.6234 67.5299 23.1512C64.7026 16.795 60.5085 10.9366 54.409 6.83629C52.6521 5.6552 50.348 5.65511 48.5909 6.83611C42.4912 10.9361 38.2972 16.7947 35.4701 23.1509C33.9258 26.623 36.3656 30.39 40.1749 30.8488C43.9127 31.2991 48.3488 31.7355 51.5 31.7355Z" fill="white"/>
<path fill-rule="evenodd" clip-rule="evenodd" d="M51.4998 11.3285C56.4872 14.772 60.0941 19.7405 62.6337 25.4611C62.6211 25.4725 62.6055 25.4849 62.5865 25.4971C62.5423 25.5255 62.4716 25.5583 62.3591 25.5719C58.5598 26.0321 54.3374 26.4395 51.5 26.4395C48.6627 26.4395 44.4402 26.032 40.6409 25.5715C40.5284 25.5579 40.4577 25.5252 40.4135 25.4968C40.3944 25.4846 40.3788 25.4722 40.3663 25.4607C42.9058 19.7401 46.5126 14.7716 51.4998 11.3285ZM57.6458 1.88192C53.9356 -0.62712 49.0649 -0.627367 45.3544 1.88158C38.0374 6.82927 33.1698 13.7912 29.9838 20.9973C26.711 28.3994 32.0626 35.8618 39.2724 36.7354C43.0927 37.1984 47.9134 37.686 51.5 37.686C55.0864 37.686 59.9068 37.1986 63.727 36.7358C70.9371 35.8625 76.2892 28.3999 73.0162 20.9975C69.83 13.7914 64.9624 6.82984 57.6458 1.88192Z" fill="#FDCB38"/>
</svg>
